<svg data-v-fde0c5aa="" xmlns="http://www.w3.org/2000/svg" viewBox="0 0 300 300" class="iconLeft"><!----><defs data-v-fde0c5aa=""><!----></defs><rect data-v-fde0c5aa="" fill="#006978" x="0" y="0" width="300px" height="300px" class="logo-background-square"></rect><defs data-v-fde0c5aa=""><!----></defs><g data-v-fde0c5aa="" id="1b068739-d239-4f5f-8f55-1cd4796d966b" fill="#ffffff" transform="matrix(3.9666569809835317,0,0,3.9666569809835317,110.02069599308771,117.0965800401097)"><path d="M1.34 13.30L6.23 13.37C7.25 13.37 7.56 13.29 7.56 12.39C7.56 12.28 7.56 12.15 7.55 12.00C7.20 12.18 6.58 12.28 5.67 12.31L3.11 12.38C3.08 11.02 3.08 10.02 3.08 8.22C3.08 7.14 3.15 5.85 3.15 4.23C3.15 3.68 2.53 3.36 1.90 3.36C1.68 3.36 1.50 3.42 1.27 3.49C1.27 3.49 1.34 3.61 1.41 4.97C1.46 5.87 1.50 8.26 1.50 9.42C1.50 12.91 1.34 13.30 1.34 13.30ZM8.37 9.98C8.37 12.04 9.76 13.51 11.63 13.51C13.99 13.51 14.46 11.73 14.46 11.73L14.39 11.66C14.39 11.66 13.34 12.46 12.19 12.46C10.75 12.46 9.97 11.31 9.97 9.63L10.02 9.60C10.02 9.60 10.75 10.00 11.56 10.00C12.80 10.00 14.27 9.49 14.27 8.09C14.27 7.14 13.54 6.09 11.69 6.09C9.65 6.09 8.37 8.05 8.37 9.98ZM9.98 8.96C9.98 8.43 10.51 6.73 11.51 6.73C12.31 6.73 12.60 7.42 12.60 8.08C12.60 8.95 11.91 9.30 11.28 9.30C10.70 9.30 9.98 9.07 9.98 8.96ZM15.47 11.63C15.47 12.66 16.16 13.51 17.33 13.51C18.21 13.51 18.91 13.02 19.24 12.43L19.29 12.46C19.31 13.20 19.91 13.44 20.48 13.44C21.69 13.44 22.04 12.57 22.04 12.57L21.98 12.53C21.98 12.53 21.73 12.73 21.45 12.73C20.76 12.73 20.75 11.72 20.75 11.17L20.75 11.00C20.75 10.23 20.79 9.30 20.79 8.55C20.79 7.28 20.52 6.09 18.54 6.09C17.30 6.09 16.17 6.96 15.95 7.80L16.00 7.85C16.52 7.39 17.25 7.01 17.93 7.01C19.01 7.01 19.28 7.67 19.28 8.85L19.28 8.97C17.75 9.00 15.47 9.60 15.47 11.63ZM17.05 11.37C17.05 9.88 18.70 9.63 19.28 9.53C19.28 10.25 19.24 10.99 19.24 11.55C19.24 12.08 18.47 12.52 17.99 12.52C17.50 12.52 17.05 12.21 17.05 11.37ZM23.23 12.36C23.23 13.23 23.59 13.44 24.11 13.44C24.40 13.44 24.74 13.36 25.09 13.30C25.06 13.29 24.77 12.78 24.77 10.02C24.77 8.47 25.07 7.34 26.17 7.34C26.49 7.34 26.84 7.50 27.29 7.73L27.36 7.70C27.47 7.41 27.52 7.01 27.52 6.71C27.52 6.40 27.38 6.16 26.84 6.16C26.08 6.16 25.12 6.71 24.72 7.59L24.67 7.57C24.67 7.57 24.77 7.27 24.77 7.06C24.77 6.48 24.28 6.16 23.63 6.16C23.41 6.16 23.18 6.22 22.95 6.29C23.00 6.34 23.30 7.08 23.30 9.93C23.30 10.70 23.23 11.52 23.23 12.36ZM28.25 12.52C28.25 13.12 29.71 13.51 30.63 13.51C31.93 13.51 33.31 12.77 33.31 11.35C33.31 8.85 29.67 9.20 29.67 7.77C29.67 7.15 30.13 6.71 30.76 6.71C31.82 6.71 32.51 7.88 32.51 7.88L32.58 7.88C32.83 7.62 33.08 7.17 33.08 6.87C33.08 6.30 31.53 6.09 30.97 6.09C29.67 6.09 28.38 6.83 28.38 8.18C28.38 10.56 32.02 10.35 32.02 11.79C32.02 12.28 31.70 12.75 30.79 12.75C29.41 12.75 28.60 11.75 28.60 11.75L28.53 11.75C28.42 11.94 28.25 12.29 28.25 12.52ZM35.77 4.97C36.29 4.97 36.72 4.54 36.72 4.03C36.72 3.51 36.29 3.08 35.77 3.08C35.27 3.08 34.83 3.51 34.83 4.03C34.83 4.54 35.27 4.97 35.77 4.97ZM35.00 12.31C35.00 13.15 35.64 13.44 36.26 13.44C37.46 13.44 37.81 12.57 37.81 12.57L37.76 12.53C37.76 12.53 37.51 12.73 37.23 12.73C36.54 12.73 36.53 11.89 36.53 11.26C36.53 10.22 36.60 8.54 36.60 7.06C36.60 6.50 36.04 6.16 35.41 6.16C35.18 6.16 34.96 6.22 34.72 6.29C34.73 6.29 35.06 6.72 35.06 9.91C35.06 10.70 35.00 11.51 35.00 12.31Z"></path></g><defs data-v-fde0c5aa=""><!----></defs><g data-v-fde0c5aa="" id="b36e6a7a-261a-472e-b8cb-aa66bf308028" stroke="none" fill="#ffffff" transform="matrix(1.9393234463524631,0,0,1.9393234463524631,40,118.97082485836059)"><path d="M16 32c8.837 0 16-7.163 16-16S24.837 0 16 0 0 7.163 0 16s7.163 16 16 16zM8.858 6.858h2v14.283h14.283v2H8.858V6.858z"></path></g><!----></svg>